<svg width="240" height="56" viewBox="0 0 240 56" xmlns="http://www.w3.org/2000/svg" fill="none"><path d="M73.68 29.895l-3.364-5.97H67.61v5.97h-3.672V13.03h8.06c3.594 0 5.798 2.302 5.798 5.448.064 1.14-.28 2.264-.974 3.18-.694.915-1.693 1.564-2.824 1.832l3.866 6.434-4.185-.03zm.357-11.474c-.002-.317-.07-.63-.202-.92-.132-.29-.325-.548-.565-.76-.24-.213-.523-.374-.83-.473-.308-.098-.633-.133-.955-.1H67.62v4.556h3.865c.323.03.65-.006.958-.106.308-.1.59-.263.83-.477.242-.214.433-.475.565-.767.13-.29.2-.606.2-.924v-.03zm6.64 11.475V13.03H92.87v3.164h-8.524v3.544h8.34v3.174h-8.34v3.847h8.524v3.135H80.676zm14.002-2.35l2.02-2.842c.704.74 1.557 1.332 2.504 1.736.948.403 1.97.612 3.004.613 2.04 0 2.996-.88 2.996-1.895 0-2.938-9.916-.88-9.916-7.24 0-2.842 2.474-5.145 6.533-5.145 2.483-.102 4.908.744 6.766 2.36l-2.04 2.68c-1.378-1.205-3.167-1.863-5.015-1.846-1.545 0-2.424.663-2.424 1.677 0 2.653 9.896.853 9.896 7.163 0 3.09-2.27 5.42-6.9 5.42-1.36.074-2.718-.125-3.995-.587-1.276-.46-2.443-1.174-3.428-2.094zm15.994-6.054c.076-2.29 1.058-4.462 2.738-6.056 1.68-1.594 3.926-2.485 6.264-2.485s4.584.89 6.264 2.484c1.68 1.594 2.66 3.766 2.738 6.057-.077 2.292-1.06 4.463-2.738 6.058-1.68 1.594-3.926 2.485-6.264 2.485s-4.584-.892-6.264-2.486c-1.68-1.594-2.662-3.765-2.738-6.056zm14.225 0c0-3.164-2.04-5.542-5.22-5.542-3.18 0-5.237 2.378-5.237 5.543 0 3.166 2.04 5.563 5.238 5.563 3.2 0 5.22-2.426 5.22-5.562zm6.484 1.67v-10.13h3.682v10.034c-.027.537.058 1.074.25 1.578.19.503.484.964.862 1.354.378.39.833.7 1.337.91.504.213 1.047.322 1.596.322.55 0 1.092-.11 1.596-.32.504-.213.96-.523 1.337-.912.378-.39.672-.85.863-1.354.19-.504.276-1.04.25-1.578V13.03h3.74v10.129c0 4.177-2.533 7.067-7.732 7.067-5.2 0-7.78-2.89-7.78-7.069zm28.81 6.735l-3.384-5.997h-2.686v5.997h-3.673V13.03h8.06c3.596 0 5.8 2.302 5.8 5.448.064 1.14-.28 2.264-.974 3.18-.694.915-1.693 1.564-2.824 1.832l3.866 6.434-4.185-.03zm.366-11.474c-.002-.317-.072-.63-.205-.92-.133-.29-.327-.55-.568-.76-.24-.213-.524-.374-.832-.473-.308-.098-.633-.133-.956-.1h-3.866v4.556H158c.325.035.654.002.966-.097.31-.098.598-.26.84-.475.245-.213.44-.476.573-.77.132-.292.2-.61.2-.93l-.02-.03zm5.828 3.07c0-5.22 4-8.736 9.2-8.736 1.47-.043 2.924.32 4.194 1.05s2.305 1.794 2.987 3.072l-3.152 1.526c-.386-.726-.964-1.336-1.672-1.768-.71-.432-1.524-.67-2.358-.686-.735-.01-1.464.128-2.143.405-.678.278-1.29.69-1.8 1.21s-.905 1.136-1.16 1.812c-.257.676-.368 1.396-.328 2.116-.043.722.067 1.444.32 2.122.256.678.65 1.298 1.16 1.82.51.52 1.124.935 1.803 1.213.68.28 1.41.418 2.148.408.834-.02 1.647-.258 2.356-.69.708-.43 1.286-1.04 1.674-1.764l3.15 1.505c-.682 1.28-1.717 2.347-2.986 3.08-1.27.734-2.72 1.104-4.194 1.07-5.2-.028-9.2-3.572-9.2-8.764zm18.7 8.405V13.03h12.196v3.164h-8.524v3.544h8.34v3.174h-8.34v3.847h8.524v3.135h-12.196zm15.5 0V13.03h2.127v16.865h-2.126zm18.5 0L209.035 16.42v13.475h-2.146V13.03h2.194l9.925 13.2v-13.2h2.145v16.865h-2.068zm18.42 0L227.455 16.45v13.445h-2.146V13.03h2.194l9.916 13.2v-13.2h2.145v16.865h-2.058zm-173.57 12.82V34.52h5.19v.947h-4.205v2.644h4.117v.948h-4.117V41.9h4.204v.948l-5.19-.132zm13.926 0V38.69c0-.75-.32-1.233-1.054-1.233-.31.03-.61.133-.873.297-.264.165-.484.387-.644.65v4.35h-.89V38.69c0-.75-.308-1.233-1.053-1.233-.31.03-.606.134-.868.298-.262.165-.48.387-.64.65v4.33h-.888v-5.95h.89v.86c.21-.293.484-.537.804-.712.32-.176.675-.278 1.04-.3.35-.024.697.075.98.277.283.203.484.498.567.83.205-.325.49-.596.826-.79.337-.192.718-.302 1.108-.317 1.043 0 1.594.606 1.594 1.8v4.283h-.898zm3.856-.89v3.155h-.89v-8.196h.89v.88c.214-.31.5-.567.837-.747.337-.18.712-.277 1.096-.284 1.497 0 2.54 1.184 2.54 3.117s-1.043 3.117-2.54 3.117c-.386-.003-.764-.1-1.1-.282-.338-.182-.624-.443-.833-.76zm3.546-2.075c0-1.317-.686-2.293-1.836-2.293-.342.01-.676.102-.974.267-.298.165-.55.4-.736.68v2.682c.186.28.44.514.737.68.297.164.63.256.973.268 1.15.01 1.836-.976 1.836-2.284zm2.32 0c-.09-.414-.084-.843.017-1.254.102-.412.295-.796.567-1.125.272-.327.615-.592 1.005-.774.39-.183.816-.277 1.247-.277.432 0 .858.093 1.248.276.39.182.733.447 1.005.776.27.328.465.712.566 1.124.102.41.108.84.02 1.254.088.414.082.843-.02 1.254-.1.41-.294.796-.565 1.124-.272.33-.615.594-1.005.776-.39.183-.816.277-1.248.277-.43 0-.858-.093-1.247-.276-.39-.182-.733-.447-1.005-.776-.272-.328-.465-.713-.567-1.124-.1-.41-.107-.84-.017-1.254zm4.735 0c0-1.203-.675-2.293-1.932-2.293-.283.018-.56.093-.812.22-.253.127-.477.304-.658.518-.18.215-.315.463-.395.73-.08.268-.102.55-.067.825 0 1.213.686 2.293 1.932 2.293 1.247 0 1.933-1.08 1.933-2.293zm7.636 2.966l-1.488-4.738-1.498 4.738h-.89l-1.826-5.932h.966l1.392 4.738 1.508-4.738h.763l1.508 4.738 1.402-4.738h.967l-1.828 5.932h-.976zm3.72-2.966c-.03-.388.02-.778.147-1.146.126-.37.327-.708.59-1 .264-.29.584-.526.942-.693.36-.166.747-.26 1.144-.277 1.73 0 2.753 1.402 2.753 3.183v.237h-4.64c0 .268.05.533.152.78.102.25.253.475.444.666.19.19.418.342.67.447.25.105.52.16.793.162.332-.002.66-.07.964-.2.304-.13.578-.32.804-.56l.426.608c-.29.306-.64.55-1.032.712-.39.163-.813.243-1.24.235-.41.005-.817-.075-1.193-.236-.376-.162-.713-.4-.99-.698-.275-.298-.483-.65-.61-1.033-.126-.385-.17-.79-.123-1.19zm2.813-2.35c-.257.007-.508.064-.74.168-.234.103-.444.25-.618.434-.174.183-.31.398-.4.633-.088.236-.128.486-.118.736h3.76c.01-.25-.03-.5-.12-.737-.09-.235-.226-.45-.402-.635-.175-.183-.386-.33-.62-.433-.234-.103-.487-.16-.743-.165zm4.493 5.316v-5.932h.89v.948c.21-.32.495-.584.83-.77.337-.19.715-.296 1.102-.31v.947c-.12-.017-.24-.017-.358 0-.316.03-.62.13-.89.295-.27.164-.498.387-.666.652v4.197l-.907-.028zm4.06-7.39c-.006-.16.052-.315.163-.432.11-.117.263-.187.425-.194.156.018.298.092.4.206.104.114.16.262.16.414 0 .153-.056.3-.16.414-.102.115-.244.188-.4.207-.08-.002-.157-.02-.23-.052-.073-.032-.14-.078-.194-.135-.054-.057-.097-.125-.125-.198-.028-.074-.04-.152-.038-.23zm.153 7.39v-5.932h.89v5.932h-.89zm6.833 0V38.84c0-1.05-.513-1.383-1.286-1.383-.338.017-.667.112-.96.277-.294.164-.545.394-.732.67v4.33h-.89v-5.95h.89v.862c.247-.3.556-.548.908-.723.352-.175.738-.274 1.132-.29 1.198 0 1.826.634 1.826 1.895v4.16l-.89.028zm2.956 1.525l.445-.68c.22.275.503.493.83.634.325.14.68.2 1.036.17.246.025.494-.003.727-.084.233-.08.445-.21.62-.38.176-.17.31-.377.395-.605.085-.228.117-.47.094-.712v-.843c-.21.316-.497.577-.833.76-.338.184-.715.284-1.1.292-1.49 0-2.552-1.156-2.552-3.07 0-1.915 1.044-3.09 2.55-3.09.387.006.765.105 1.103.288.338.184.623.446.832.764v-.9h.89v5.76c.033.353-.013.708-.137 1.04-.124.333-.322.634-.58.882-.256.247-.567.436-.908.55-.34.116-.704.156-1.062.116-.435.04-.874-.02-1.282-.173-.408-.156-.773-.4-1.067-.72zm4.146-3.23v-2.587c-.183-.284-.435-.52-.734-.684-.298-.166-.634-.257-.976-.264-1.15 0-1.837.947-1.837 2.264 0 1.318.687 2.265 1.837 2.265.347-.013.685-.11.984-.285.298-.173.548-.417.726-.71zm6.36 1.706V34.52h3.527c.29-.024.58.014.854.11s.525.248.734.446c.21.198.373.438.48.703.108.264.157.55.144.834.028.423-.094.844-.346 1.19-.252.345-.618.594-1.036.705.45.116.848.38 1.126.746.28.366.424.814.41 1.27.023.3-.022.6-.13.88-.107.28-.276.534-.494.745-.218.21-.48.372-.767.472-.288.1-.595.14-.9.113l-3.604-.02zm4.725-5.96c.012-.178-.016-.356-.08-.523-.065-.167-.165-.318-.294-.444-.13-.126-.284-.224-.455-.286-.17-.062-.352-.087-.534-.075h-2.377v2.643h2.377c.182.015.364-.008.535-.068.17-.06.326-.157.456-.282.13-.125.23-.277.294-.444.064-.168.09-.346.077-.524zm.155 3.638c.008-.187-.024-.374-.093-.55-.07-.174-.176-.333-.312-.466-.135-.133-.297-.236-.476-.304-.178-.07-.37-.1-.56-.09h-2.426v2.84h2.426c.194.016.39-.012.572-.08.183-.066.35-.17.486-.307.137-.136.242-.3.308-.48s.09-.372.074-.563zm6.716 2.322v-.834c-.253.292-.566.527-.92.69-.353.164-.738.252-1.128.258-1.19 0-1.827-.607-1.827-1.896v-4.15h.9v3.904c0 1.052.5 1.355 1.274 1.355.34-.015.67-.11.967-.274.295-.165.547-.396.734-.675v-4.358h.89v5.93l-.89.05zm2.474-.787l.464-.664c.235.265.524.477.85.625.324.148.677.225 1.035.23.88 0 1.354-.437 1.354-1.024 0-1.43-3.547-.55-3.547-2.748 0-.948.773-1.715 2.136-1.715.396-.01.79.062 1.156.21.365.15.695.37.97.652l-.417.644c-.21-.243-.473-.435-.77-.565-.294-.13-.616-.193-.94-.184-.783 0-1.266.4-1.266.948 0 1.308 3.547.445 3.547 2.758 0 .994-.774 1.79-2.262 1.79-.433.02-.866-.055-1.266-.22-.4-.166-.756-.418-1.044-.737zm6.147-6.605c.004-.115.044-.226.114-.318.07-.093.164-.164.274-.204.11-.04.23-.048.344-.022.114.027.218.085.3.168.08.083.134.188.155.3.02.114.007.23-.04.336-.045.106-.122.196-.22.26-.097.063-.212.097-.33.097-.16-.004-.315-.072-.427-.187-.112-.115-.174-.27-.17-.428zm.153 7.39v-5.93h.89v5.93h-.89zm6.833 0V38.84c0-1.05-.512-1.383-1.276-1.383-.34.017-.67.11-.965.276-.295.164-.547.394-.736.672v4.33h-.89v-5.95h.89v.86c.248-.3.557-.544.91-.72.35-.173.735-.273 1.13-.292 1.197 0 1.825.634 1.825 1.895v4.16l-.89.028zm2.638-2.965c-.028-.388.022-.777.15-1.145.126-.368.327-.707.59-.998.263-.29.583-.526.94-.694.358-.167.746-.262 1.142-.28 1.73 0 2.755 1.402 2.755 3.183v.237h-4.638c-.003.268.048.533.15.78.103.25.253.475.445.666.19.19.418.342.67.447.25.105.52.16.793.162.332 0 .66-.07.965-.2.304-.13.578-.32.804-.56l.424.608c-.29.306-.64.55-1.032.713-.39.164-.814.244-1.24.235-.41.005-.817-.075-1.194-.236-.376-.162-.714-.4-.99-.698-.276-.298-.484-.65-.61-1.033-.127-.385-.17-.79-.124-1.19zm2.813-2.35c-.256.007-.507.064-.74.168-.233.103-.443.25-.617.434-.175.183-.31.398-.4.633-.088.236-.13.486-.118.736h3.76c.01-.25-.03-.5-.12-.737-.09-.235-.227-.45-.402-.635-.175-.183-.386-.33-.62-.433-.234-.103-.487-.16-.743-.165zm4 4.53l.455-.664c.242.27.54.484.872.63.334.148.695.224 1.06.223.87 0 1.354-.437 1.354-1.024 0-1.43-3.557-.55-3.557-2.748 0-.948.774-1.715 2.137-1.715.396-.01.79.062 1.156.21.366.15.697.37.97.652l-.415.644c-.21-.244-.472-.438-.768-.568-.296-.13-.62-.192-.943-.18-.783 0-1.266.397-1.266.946 0 1.308 3.548.445 3.548 2.758 0 .994-.773 1.79-2.252 1.79-.44.026-.88-.046-1.287-.212-.408-.166-.77-.42-1.062-.745zm5.81 0l.463-.664c.234.265.524.477.85.625.324.148.676.225 1.034.23.88 0 1.353-.437 1.353-1.024 0-1.43-3.547-.55-3.547-2.748 0-.948.774-1.715 2.136-1.715.403-.02.805.046 1.18.192.375.145.714.367.995.65l-.415.645c-.21-.242-.473-.434-.77-.564-.295-.13-.616-.192-.94-.184-.783 0-1.266.398-1.266.947 0 1.307 3.545.444 3.545 2.757 0 .995-.773 1.79-2.26 1.79-.44.03-.882-.04-1.29-.2-.41-.164-.775-.416-1.07-.738zm5.98-2.18c-.028-.388.023-.777.15-1.145s.328-.707.59-.998c.264-.29.584-.526.94-.694.36-.167.747-.262 1.143-.28 1.73 0 2.754 1.402 2.754 3.183v.237h-4.64c0 .268.05.533.152.78.102.25.253.475.444.666.19.19.42.342.67.447.25.105.52.16.794.162.332 0 .66-.07.965-.2.303-.13.577-.32.802-.56l.426.608c-.29.306-.64.55-1.032.713-.392.164-.814.244-1.24.235-.41.005-.817-.075-1.194-.236-.377-.162-.714-.4-.99-.698-.276-.298-.484-.65-.61-1.033-.127-.385-.17-.79-.124-1.19zm2.813-2.35c-.255.007-.507.064-.74.168-.233.103-.442.25-.617.434-.174.183-.31.398-.4.633-.088.236-.128.486-.118.736h3.76c.01-.25-.03-.5-.12-.737-.09-.235-.226-.45-.4-.635-.177-.183-.388-.33-.622-.433-.234-.103-.486-.16-.743-.165zm3.992 4.53l.463-.664c.242.27.54.484.873.63.333.148.695.224 1.06.223.87 0 1.344-.437 1.344-1.024 0-1.43-3.547-.55-3.547-2.748 0-.948.773-1.715 2.136-1.715.397-.01.79.062 1.157.21.366.15.696.37.97.652l-.416.644c-.208-.244-.47-.437-.767-.567-.296-.13-.618-.192-.942-.182-.782 0-1.265.4-1.265.948 0 1.308 3.546.445 3.546 2.758 0 .994-.772 1.79-2.25 1.79-.44.022-.882-.052-1.29-.218-.407-.165-.772-.418-1.068-.74zm9.238-.36l.58-.778c.305.36.685.65 1.116.852.43.202.9.31 1.378.314 1.41 0 1.855-.787 1.855-1.412 0-2.113-4.688-.948-4.688-3.876.017-.327.1-.648.25-.942.146-.294.353-.556.608-.77.254-.212.55-.372.87-.468.32-.097.655-.13.988-.094.528-.016 1.054.082 1.54.286.486.205.92.512 1.272.9l-.59.747c-.288-.312-.643-.558-1.038-.722-.396-.163-.823-.24-1.252-.226-.966 0-1.624.53-1.624 1.307 0 1.838 4.688.786 4.688 3.846 0 1.194-.783 2.407-2.9 2.407-.582.016-1.16-.1-1.69-.34-.53-.237-.996-.59-1.364-1.034zm14.603 1.146V38.69c0-.75-.32-1.233-1.053-1.233-.313.03-.614.13-.88.295-.264.165-.486.388-.647.652v4.35h-.89V38.69c0-.75-.31-1.233-1.053-1.233-.318.028-.624.13-.893.298-.27.168-.493.398-.653.668v4.33h-.89v-5.97h.89v.863c.22-.303.51-.552.846-.728.335-.176.707-.273 1.087-.285.35-.025.695.073.977.276.28.202.48.497.56.83.205-.325.488-.596.825-.79.336-.192.716-.302 1.106-.317 1.044 0 1.605.606 1.605 1.8v4.283h-.937zm6.552 0v-.673c-.24.27-.536.484-.87.627-.335.143-.698.21-1.062.197-.266.008-.53-.037-.776-.134-.247-.096-.47-.24-.657-.426-.187-.185-.333-.406-.43-.648-.095-.244-.14-.503-.128-.763-.008-.26.038-.518.136-.76.098-.24.245-.46.432-.642.188-.183.412-.326.658-.42.246-.096.51-.14.774-.13.365-.02.73.042 1.065.184.335.14.632.356.868.63v-1.07c0-.18-.04-.358-.114-.52-.074-.164-.184-.31-.32-.428-.138-.12-.3-.207-.474-.26-.175-.052-.36-.067-.54-.044-.338-.003-.672.07-.977.213-.306.144-.573.353-.783.612l-.416-.644c.287-.315.64-.563 1.037-.727.397-.163.825-.238 1.254-.22.29-.043.582-.023.86.06.278.084.533.227.746.42.214.193.38.43.487.695.107.265.152.55.13.834v4.074l-.898-.038zm0-1.25v-1.148c-.186-.237-.426-.427-.702-.556-.275-.128-.578-.19-.883-.183-.35 0-.687.136-.936.38-.248.243-.387.573-.387.918 0 .344.14.674.387.917.25.244.585.38.936.38.303.012.604-.046.88-.17.275-.123.516-.308.705-.54zm2.958 1.25v-5.932h.898v.948c.21-.32.495-.587.832-.775.336-.188.715-.293 1.102-.306v.95c-.118-.017-.24-.017-.357 0-.315.03-.618.13-.886.296-.267.164-.493.387-.66.65v4.198l-.927-.028zm4.397-1.242V37.6h-.967v-.816h.967v-1.62h.89v1.62h1.16v.815h-1.16v3.666c0 .436.183.758.58.758.11 0 .22-.02.324-.063.103-.04.196-.103.274-.182l.26.69c-.14.134-.307.235-.49.3-.183.066-.378.093-.572.08-.84.02-1.266-.483-1.266-1.373zm3.605 1.242V34.52h.89v8.196h-.89zm2.783 1.487c.155.067.323.103.493.105.195.01.386-.048.54-.162.157-.114.266-.28.31-.464l.378-.9-2.397-5.998h.968l1.933 4.87 1.934-4.87H240l-2.9 7.145c-.106.353-.328.663-.632.88-.304.218-.673.33-1.05.322-.217-.004-.435-.032-.646-.085l.106-.844z" fill="#212B36"/><path d="M28.026 55.48c15.48 0 28.026-12.304 28.026-27.48S43.505.52 28.026.52C12.548.52 0 12.825 0 28s12.548 27.48 28.026 27.48z" fill="#fff"/><path d="M11.8 10.982h-.01l-.01-.066h.01l.01.066zM10.04 39.664v5.524c-.407-.407-.804-.824-1.17-1.26v-4.264c0-.148.057-.29.16-.4.106-.106.248-.17.4-.178.08-.004.158.008.233.036.074.027.142.07.2.124.056.054.1.12.132.19.03.073.045.15.044.228zm.578-15.9c-.378 1.433-.57 2.908-.57 4.388v8.84c-.018.14-.088.268-.195.36-.108.093-.246.144-.39.144-.143 0-.28-.05-.39-.144-.106-.092-.176-.22-.194-.36v-8.84c-.002-1.576.2-3.145.598-4.672.018-.074.05-.143.097-.205.046-.06.104-.113.17-.15.067-.04.14-.066.218-.076.077-.012.155-.007.23.013.15.038.28.133.36.265.08.13.103.288.065.436zm.87-2.54c-.043.103-.115.19-.208.252-.092.063-.2.097-.314.1-.083-.006-.165-.025-.24-.057-.072-.03-.136-.072-.19-.126-.053-.054-.095-.117-.123-.187-.028-.07-.04-.145-.04-.22.003-.075.02-.148.052-.217 1.477-3.375 3.932-6.252 7.06-8.273 3.128-2.02 6.792-3.098 10.54-3.097.588 0 1.178 0 1.767.075.076.008.15.03.218.065s.128.083.176.14c.05.06.085.127.107.2.022.07.03.146.02.22-.004.077-.024.15-.06.22-.034.067-.083.128-.143.176-.06.05-.13.086-.204.107-.074.022-.153.028-.23.02-.55-.055-1.1-.08-1.652-.077-3.52 0-6.962 1.01-9.9 2.91-2.94 1.897-5.247 4.6-6.636 7.77zM30.798 47.9v4.264c-.387 0-.784.076-1.17.105V43.34c-.005-.037-.005-.075 0-.113l.067.265v.123l1.102 4.283zm-4.775-21.793c-.3.263-.54.584-.707.943-.166.358-.255.747-.26 1.142.005.546.17 1.08.475 1.536.307.457.74.818 1.25 1.04.508.222 1.072.295 1.623.21.55-.084 1.064-.322 1.48-.685.417-.362.717-.835.867-1.362.148-.526.14-1.084-.026-1.605-.166-.522-.48-.986-.91-1.336-.426-.35-.948-.573-1.5-.64-.154-.017-.294-.092-.39-.21-.1-.116-.146-.265-.132-.416.02-.15.098-.285.22-.38.12-.093.274-.137.427-.12.924.104 1.785.514 2.44 1.164.654.65 1.063 1.498 1.16 2.406.094.908-.13 1.82-.635 2.588-.506.766-1.263 1.34-2.147 1.628-.884.287-1.84.27-2.714-.05-.872-.318-1.607-.92-2.084-1.704-.476-.784-.666-1.704-.536-2.61.13-.903.57-1.736 1.25-2.36.052-.056.116-.1.186-.128.07-.03.147-.045.223-.045.077 0 .153.014.224.044.07.03.134.072.187.127.06.052.107.114.14.184.034.07.052.146.055.223.002.077-.01.154-.04.226-.028.07-.072.137-.127.192zM33.474 32.065c.107.108.167.252.167.402 0 .15-.06.295-.166.403-.684.77-1.53 1.386-2.478 1.808-.95.422-1.98.64-3.02.637h-.29c-1.428-.044-2.81-.51-3.963-1.336-.128-.09-.215-.224-.242-.375-.027-.15.01-.306.098-.432.09-.125.227-.21.38-.238.155-.026.314.008.442.096.882.627 1.92 1.007 3.005 1.1.19.014.38.014.57 0 .877.01 1.744-.166 2.546-.512.803-.346 1.52-.857 2.104-1.497.05-.06.114-.108.185-.143.07-.036.147-.057.227-.062.08-.006.16.005.234.03.076.026.146.067.204.12zM16.94 18.175c-2.402 2.543-3.803 5.84-3.954 9.303l-.125 1.07V47c0 .085-.02.17-.056.245-.037.077-.09.145-.156.2-.329-.246-.65-.502-.966-.767l.116-17.814v-.71c-.004-3.99 1.528-7.835 4.29-10.765.053-.054.116-.097.186-.126.07-.028.145-.043.22-.043.076 0 .15.015.22.044.07.03.134.073.186.127.107.102.17.24.177.386.007.146-.042.29-.138.4zM17 10.754c-3.028 1.83-5.526 4.392-7.255 7.44-1.73 3.047-2.633 6.48-2.622 9.967v13.503c-.426-.616-.812-1.24-1.17-1.895V28.16c-.008-3.683.946-7.307 2.774-10.525 1.827-3.218 4.466-5.924 7.663-7.857.133-.07.288-.088.433-.047.145.042.267.137.34.266.076.123.1.27.07.41-.03.142-.114.266-.234.348zm11.026 18.193c-.112 0-.223-.02-.327-.06-.104-.042-.2-.104-.278-.18-.08-.08-.142-.17-.184-.273-.042-.102-.064-.21-.062-.32 0-.223.09-.436.248-.594.16-.158.376-.248.602-.25.227.005.443.095.603.252.16.157.25.37.256.59-.002.223-.094.435-.255.59-.16.158-.377.245-.604.245zm.425 9.37h-.433c-1.04.003-2.072-.15-3.064-.453V52.17c-.396 0-.783-.103-1.17-.17V37.07c0-.094.025-.187.07-.27.046-.082.11-.153.192-.204.077-.056.167-.09.262-.1.095-.01.192.005.28.043 1.09.427 2.255.646 3.43.644h.164l.27 1.138zM29.142 41.143c-.373.042-.747.062-1.122.057h-.145v11.143h-1.17v-11.74c.003-.16.07-.314.185-.427.056-.055.125-.096.2-.12.076-.026.156-.033.235-.022h.695c.28.014.56.014.84 0l.282 1.11zm8.93-.483l-.05-.2-.076-.312v-.104c2.443-2.123 4.096-4.984 4.696-8.13.328-1.238.494-2.512.493-3.79-.008-2.648-.74-5.244-2.123-7.518-1.383-2.274-3.362-4.142-5.733-5.41-2.372-1.266-5.046-1.885-7.744-1.79-2.7.093-5.322.896-7.595 2.324-.062.046-.134.08-.21.096-.078.018-.157.02-.235.007-.078-.013-.152-.042-.218-.085-.066-.042-.122-.097-.166-.162-.042-.064-.072-.137-.085-.213-.014-.076-.012-.154.006-.23.02-.075.052-.146.1-.208.046-.062.105-.114.173-.153 3.507-2.127 7.708-2.864 11.75-2.064 4.04.8 7.62 3.08 10.01 6.375 2.39 3.294 3.41 7.357 2.854 11.363-.556 4.006-2.646 7.654-5.846 10.204zM47.167 28.152c0 3.313-.903 6.565-2.62 9.42-.048.085-.12.157-.206.21-.085.05-.184.08-.285.083-.104-.002-.207-.028-.3-.076-.13-.082-.224-.207-.263-.353-.04-.146-.02-.3.05-.435 1.36-2.278 2.18-4.828 2.398-7.46.218-2.63-.17-5.276-1.138-7.74-.967-2.464-2.488-4.683-4.45-6.492-1.96-1.81-4.312-3.16-6.88-3.958-.073-.02-.142-.057-.2-.105-.06-.05-.11-.108-.145-.176-.035-.066-.056-.14-.06-.215-.007-.076.004-.15.03-.223.022-.072.06-.138.11-.196.05-.057.11-.105.178-.14.068-.034.143-.054.22-.06.076-.006.153.003.226.027 3.878 1.2 7.263 3.582 9.662 6.8 2.4 3.218 3.687 7.103 3.675 11.09zm-8.06 15.265l-.415-1.118c1.35-.975 2.56-2.126 3.595-3.42.095-.12.235-.2.39-.22.153-.018.308.022.43.114.123.094.203.23.223.382.02.15-.02.303-.115.424-1.164 1.475-2.55 2.77-4.108 3.837zM48.484 26.03c-.238-3.09-1.2-6.082-2.812-8.747-.073-.133-.09-.288-.05-.434.038-.147.132-.273.263-.353.134-.076.294-.097.444-.058.15.038.278.134.357.265 1.693 2.818 2.705 5.978 2.957 9.24.005.074-.005.15-.03.22-.023.07-.062.136-.112.193-.05.056-.11.102-.18.135-.07.033-.143.053-.22.058-.15.008-.3-.04-.415-.138-.115-.097-.188-.234-.203-.383zM35.34 28.757c.003.522-.05 1.043-.154 1.554-.01.078-.034.153-.074.22-.04.067-.095.125-.16.17-.064.046-.138.078-.216.094-.078.016-.158.016-.236 0-.156-.043-.29-.142-.374-.277-.084-.137-.113-.3-.08-.454.078-.42.117-.844.116-1.27.065-1.662-.544-3.283-1.694-4.506-1.15-1.224-2.747-1.95-4.443-2.022-1.687.073-3.276.796-4.423 2.01-1.147 1.216-1.76 2.826-1.704 4.48v22.94c-.396-.094-.783-.2-1.17-.312V28.758c-.058-1.774.52-3.512 1.635-4.91 1.114-1.4 2.694-2.372 4.464-2.746.16-.032.32-.054.483-.066.228-.02.458-.02.686 0 .488 0 .974.054 1.45.16l.502.133c1.59.51 2.97 1.508 3.942 2.845.97 1.337 1.48 2.943 1.45 4.583zm4.833 17.435l-.425-1.137c2.735-1.813 4.992-4.236 6.584-7.07 1.593-2.836 2.477-6.002 2.578-9.237.005-.15.068-.288.176-.39.108-.104.253-.16.403-.16.076 0 .152.017.223.047.07.03.134.074.187.13.053.053.095.118.122.19.027.07.04.144.038.22-.103 3.466-1.055 6.857-2.776 9.886-1.72 3.03-4.16 5.61-7.11 7.52zM50.99 18.468c-.03-.062-.055-.125-.076-.19-2.307-5.153-6.352-9.37-11.456-11.944C34.353 3.76 28.5 2.988 22.885 4.147c-5.617 1.158-10.656 4.176-14.27 8.548C5 17.065 3.03 22.525 3.037 28.152v1.895c.17 2.004.59 3.98 1.247 5.884 0 0 0-4.737-.078-4.85v-2.928c-.005-4.06 1.068-8.05 3.114-11.58 2.047-3.528 4.996-6.473 8.557-8.543 3.562-2.072 7.612-3.197 11.75-3.265 4.14-.068 8.227.922 11.857 2.874 3.63 1.95 6.68 4.797 8.845 8.257 2.166 3.46 3.375 7.412 3.51 11.47.132 4.057-.816 8.078-2.75 11.667-1.935 3.59-4.79 6.62-8.285 8.798l.367.948v.142c3.598-2.22 6.566-5.294 8.63-8.938 2.062-3.644 3.153-7.74 3.17-11.908.014-3.302-.66-6.57-1.98-9.608zM11.8 10.982h-.01l-.01-.066h.01l.01.066zM45.132 14.488c.096.12.14.27.124.42-.016.15-.092.29-.21.386-.106.08-.235.124-.37.123-.086.003-.172-.014-.25-.05-.08-.037-.15-.09-.203-.16-2.832-3.414-6.713-5.844-11.065-6.926-4.353-1.08-8.945-.758-13.095.92-.143.06-.302.06-.445 0-.142-.057-.255-.167-.314-.307-.06-.14-.06-.296 0-.436s.172-.25.314-.308c4.38-1.777 9.23-2.12 13.824-.978 4.595 1.142 8.69 3.708 11.68 7.316h.01z" fill="#8224E3" stroke="#8224E3" stroke-width=".5" stroke-miterlimit="10"/><path d="M29.138 41.143l-.27-1.137" stroke="#8224E3" stroke-width=".5" stroke-miterlimit="10"/><path d="M37.99 40.47l.077.19-.077-.19zM21.822 50.893v.7l-.966-.264v-.437c0-.128.05-.25.144-.342.092-.09.218-.14.348-.14.13 0 .256.05.35.14.09.092.143.215.143.343h-.018z" fill="#8224E3" stroke="#8224E3" stroke-width=".5" stroke-miterlimit="10"/></svg>